# xmcd
#
# Track frame offsets: 
#        182
#        14307
#        30385
#        47065
#        69187
#        83512
#
# Disc length: 1343 seconds
#
# Revision: 0
# Processed by: cddbd v1.5.2PL0 Copyright (c) Steve Scherf et al.
# Submitted via: ExactAudioCopy v0.95a5
#
DISCID=37053d06
DTITLE=The Fabulous Barbecue Boys - ... doin' the Blues
DYEAR=1996
DGENRE=Blues
TTITLE0=Same Old Story
TTITLE1=Have A Good Time
TTITLE2=I Should Go My Way
TTITLE3=You Told Me
TTITLE4=Troublin' Woman
TTITLE5=Sloppy Drunk
EXTD=
EXTT0=
EXTT1=
EXTT2=
EXTT3=
EXTT4=
EXTT5=
PLAYORDER=
